<?xml version="1.0" encoding="UTF-8"?>
<svg version="1.1" viewBox="0 0 200 200" xmlns="http://www.w3.org/2000/svg"><g class="" transform="matrix(.43 0 0 .43 -9.1 -9.1)" fill="#c57336" stroke="#000" stroke-linejoin="bevel" stroke-width="4.8"><path d="m217 25v14h78v-14zm0 32v46h14v-32h50v32h14v-46zm32 32v14h14v-14zm-64 32v46h30v-46zm48 0v14h46v-14zm64 0v46h30v-46zm-64 32v14h46v-14zm-80 32v46h62v-46zm80 0v14h46v-14zm64 0v46h62v-46zm-64 32v14h46v-14zm-112 32v46h94v-46zm112 0v14h46v-14zm64 0v46h94v-46zm-64 32v14h46v-14zm-144 32v46h126v-46zm144 0v14h46v-14zm64 0v46h126v-46zm-64 32v14h46v-14zm-176 32v46h158v-46zm176 0v14h46v-14zm64 0v46h158v-46zm-64 32v14h46v-14zm-208 32v46h190v-46zm208 0v14h46v-14zm64 0v46h190v-46zm-64 32v14h46v-14z" fill="#c57336" stroke="#000" stroke-linejoin="bevel" stroke-width="4.8"/></g></svg>
